<?xml version="1.0"?>
<svg width="918" height="462" xmlns="http://www.w3.org/2000/svg" xmlns:svg="http://www.w3.org/2000/svg">
 <defs>
  <clipPath id="clip0_1303_690">
   <rect fill="white" height="462" id="svg_1" transform="translate(0.5)" width="916.96"/>
  </clipPath>
 </defs>
 <g class="layer">
  <title>Layer 1</title>
  <g clip-path="url(#clip0_1303_690)" id="svg_2">
   <path d="m0.5,237.53l51.7,0c12.37,-0.34 24.62,2.5 35.64,8.26c10.12,5.11 18.53,13.17 24.16,23.17c5.63,10.3 8.59,21.91 8.59,33.71c0,11.81 -2.96,23.41 -8.59,33.72c-5.87,9.83 -14.21,17.88 -24.16,23.29c-11.05,5.67 -23.28,8.51 -35.64,8.26l-51.7,0l0,-130.41zm50.86,118.09c10.12,0.28 20.14,-2.1 29.11,-6.91c8.18,-4.28 14.94,-10.93 19.45,-19.1c4.58,-8.43 6.98,-17.91 6.98,-27.55c0,-9.64 -2.4,-19.12 -6.98,-27.55c-4.59,-7.87 -11.36,-14.18 -19.45,-18.12c-9.1,-4.55 -19.1,-6.91 -29.24,-6.91l-37.56,0l0,106.14l37.69,0z" fill="#e5d0bb" id="svg_3" stroke="#e5d0bb" stroke-width="2"/>
   <path d="m240.4,355.63l0,12.32l-89.87,0l0,-130.41l86.97,0l0,11.71l-73.81,0l0,46.22l65.84,0l0,12.33l-65.84,0l0,48.2l76.71,-0.37z" fill="#e5d0bb" id="svg_4" stroke="#e5d0bb" stroke-width="2"/>
   <path d="m341.03,359.94c-10.01,-5.46 -18.36,-13.6 -24.16,-23.54c-5.71,-10.33 -8.7,-21.99 -8.7,-33.84c0,-11.86 2.99,-23.51 8.7,-33.84c5.77,-9.97 14.13,-18.12 24.16,-23.54c9.26,-4.86 19.41,-7.7 29.81,-8.34c10.4,-0.64 20.82,0.94 30.58,4.64c7.71,3.14 14.64,7.98 20.3,14.18l-8.46,8.63c-4.89,-5.08 -10.74,-9.07 -17.2,-11.74c-6.47,-2.68 -13.4,-3.97 -20.37,-3.8c-9.63,-0.07 -19.11,2.39 -27.54,7.15c-8.01,4.58 -14.71,11.21 -19.45,19.23c-4.57,8.39 -6.96,17.83 -6.96,27.43c0,9.6 2.39,19.04 6.96,27.43c4.61,8 11.19,14.63 19.09,19.23c8.44,4.73 17.91,7.19 27.54,7.15c7,0.24 13.97,-1.02 20.46,-3.7c6.49,-2.67 12.36,-6.71 17.23,-11.84l8.46,8.63c-5.63,6.32 -12.68,11.14 -20.54,14.05c-8.44,3.32 -17.42,4.95 -26.45,4.81c-11.69,0.3 -23.24,-2.59 -33.46,-8.38z" fill="#e5d0bb" id="svg_5" stroke="#e5d0bb" stroke-width="2"/>
   <path d="m469.19,359.96c-10.04,-5.4 -18.41,-13.56 -24.16,-23.55c-5.64,-10.3 -8.6,-21.91 -8.6,-33.71c0,-11.8 2.96,-23.41 8.6,-33.71c5.79,-9.93 14.15,-18.03 24.16,-23.42c10.54,-5.65 22.27,-8.6 34.18,-8.6c11.91,0 23.64,2.95 34.19,8.6c9.99,5.41 18.35,13.51 24.16,23.42c5.7,10.35 8.7,22.02 8.7,33.89c0,11.88 -3,23.55 -8.7,33.9c-5.74,9.97 -14.11,18.08 -24.16,23.42c-10.56,5.59 -22.29,8.51 -34.19,8.51c-11.89,0 -23.62,-2.92 -34.18,-8.51l0,-0.24zm61.24,-10.6c8.03,-4.69 14.67,-11.51 19.21,-19.73c4.51,-8.45 6.88,-17.92 6.88,-27.55c0,-9.62 -2.37,-19.09 -6.88,-27.55c-4.6,-7.95 -11.24,-14.47 -19.21,-18.86c-8.31,-4.64 -17.7,-6.94 -27.18,-6.65c-9.51,-0.09 -18.89,2.24 -27.3,6.78c-7.97,4.58 -14.63,11.21 -19.32,19.23c-4.58,8.43 -6.99,17.91 -6.99,27.55c0,9.64 2.41,19.12 6.99,27.55c4.52,8.15 11.22,14.82 19.32,19.23c8.37,4.65 17.77,7.03 27.3,6.9c9.5,0.18 18.88,-2.2 27.18,-6.9z" fill="#e5d0bb" id="svg_6" stroke="#e5d0bb" stroke-width="2"/>
   <path d="m608.1,364c-7.63,-2.38 -14.59,-6.61 -20.29,-12.32l5.32,-10.73c5.23,5.07 11.44,8.97 18.24,11.47c7.71,2.97 15.91,4.43 24.15,4.31c8.69,0.5 17.32,-1.69 24.77,-6.29c2.67,-1.81 4.84,-4.29 6.3,-7.21c1.45,-2.91 2.16,-6.16 2.03,-9.43c0.17,-2.26 -0.14,-4.53 -0.91,-6.66c-0.78,-2.13 -1.99,-4.06 -3.56,-5.66c-3.23,-3.13 -7.05,-5.56 -11.23,-7.15c-6.13,-2.31 -12.43,-4.13 -18.84,-5.43c-7.49,-1.98 -14.87,-4.37 -22.11,-7.15c-5.58,-2.28 -10.57,-5.82 -14.62,-10.35c-4.17,-5.49 -6.34,-12.29 -6.16,-19.23c0,-6.41 1.76,-12.68 5.07,-18.12c4.02,-5.52 9.45,-9.79 15.71,-12.33c8.31,-3.47 17.23,-5.15 26.21,-4.93c7.24,0.09 14.43,1.17 21.38,3.21c6.41,1.72 12.49,4.51 18,8.26l-4.59,10.97c-5.28,-3.56 -11.07,-6.26 -17.15,-8.02c-5.73,-1.71 -11.67,-2.58 -17.64,-2.58c-8.92,-0.63 -17.8,1.66 -25.37,6.53c-2.58,1.96 -4.68,4.5 -6.12,7.44c-1.45,2.93 -2.21,6.16 -2.21,9.45c-0.12,2.27 0.24,4.55 1.05,6.68c0.81,2.13 2.06,4.05 3.66,5.64c3.51,3.2 7.62,5.63 12.08,7.15c4.71,1.73 10.87,3.45 18.72,5.43c7.72,1.9 15.34,4.2 22.83,6.9c5.58,2.28 10.57,5.82 14.62,10.35c4.28,5.28 6.4,12.03 5.92,18.86c0.02,6.41 -1.74,12.69 -5.07,18.12c-4.11,5.58 -9.68,9.85 -16.07,12.33c-8.39,3.28 -17.35,4.84 -26.33,4.56c-9.42,0.28 -18.82,-1.09 -27.79,-4.07z" fill="#e5d0bb" id="svg_7" stroke="#e5d0bb" stroke-width="2"/>
   <path d="m734.82,249.5l-44.69,0l0,-12.33l103.04,0l0,12.33l-44.7,0l0,117.84l-13.65,0l0,-117.84z" fill="#e5d0bb" id="svg_8" stroke="#e5d0bb" stroke-width="2"/>
   <path d="m887.99,332.7l-70.67,0l-15.1,34.64l-14.25,0l58.1,-129.8l13.17,0l58.22,129.8l-14.01,0l-15.46,-34.64zm-4.83,-11.22l-30.56,-69.64l-30.69,69.64l61.25,0z" fill="#e5d0bb" id="svg_9" stroke="#e5d0bb"/>
   <path d="m315.45,443.63l11.24,0l0,16.39c-1.74,0.61 -3.52,1.1 -5.32,1.48c-2.09,0.13 -4.19,0.13 -6.28,0c-2.9,0.11 -5.78,-0.57 -8.34,-1.97c-2.34,-1.44 -4.22,-3.54 -5.43,-6.04c-1.22,-2.88 -1.8,-5.99 -1.69,-9.13c-0.1,-3.09 0.61,-6.15 2.05,-8.87c1.32,-2.58 3.39,-4.69 5.92,-6.04c2.73,-1.55 5.83,-2.27 8.94,-2.1c1.7,0.09 3.4,0.29 5.07,0.62c1.55,0.29 3.05,0.78 4.47,1.48l-1.69,3.7c-1.23,-0.64 -2.53,-1.14 -3.87,-1.48c-1.52,-0.12 -3.06,-0.12 -4.58,0c-2.33,-0.02 -4.62,0.58 -6.65,1.72c-1.89,0.97 -3.39,2.58 -4.23,4.56c-1.09,2.22 -1.59,4.68 -1.45,7.15c-0.08,2.35 0.29,4.7 1.09,6.91c0.85,1.96 2.23,3.63 3.99,4.8c2.14,1.19 4.56,1.79 7,1.73c1.21,0.12 2.42,0.12 3.63,0l2.9,0l0,-10.6l-6.77,0l0,-4.31z" fill="#e5d0bb" id="svg_10" stroke="#e5d0bb"/>
   <path d="m384.19,428.23c2.31,-0.01 4.6,0.4 6.76,1.23c1.61,0.52 2.98,1.61 3.87,3.08c0.9,1.56 1.32,3.37 1.2,5.18c-0.04,1.47 -0.33,2.93 -0.84,4.31c-0.65,1.12 -1.51,2.08 -2.54,2.84c-0.97,0.7 -2.03,1.28 -3.14,1.72l9.06,14.92l-4.83,0l-7.85,-13.68l-6.53,0l0,13.68l-3.5,0l0,-33.28l8.34,0zm0,3.82l-4.84,0l0,12.33l4.84,0c2.11,0.21 4.23,-0.41 5.92,-1.73c0.62,-0.6 1.11,-1.33 1.45,-2.14c0.33,-0.8 0.49,-1.67 0.48,-2.55c0.03,-1.16 -0.26,-2.32 -0.85,-3.32c-0.68,-0.89 -1.54,-1.61 -2.54,-2.1c-1.45,-0.43 -3.01,-0.43 -4.46,0l0,-0.49z" fill="#e5d0bb" id="svg_11" stroke="#e5d0bb"/>
   <path d="m473.34,444.5c-0.02,2.33 -0.31,4.64 -0.85,6.9c-0.58,2 -1.57,3.85 -2.9,5.43c-1.16,1.64 -2.81,2.86 -4.71,3.45c-2.07,0.84 -4.29,1.26 -6.52,1.23c-2.31,0 -4.6,-0.42 -6.77,-1.23c-1.76,-0.85 -3.36,-2.02 -4.71,-3.45c-1.36,-1.54 -2.31,-3.41 -2.78,-5.43c-0.58,-2.25 -0.87,-4.57 -0.84,-6.9c-0.05,-3.05 0.53,-6.07 1.69,-8.87c1.03,-2.47 2.75,-4.58 4.95,-6.05c2.61,-1.39 5.51,-2.15 8.46,-2.21c2.86,-0.09 5.69,0.59 8.21,1.97c2.2,1.5 3.96,3.59 5.07,6.04c1.11,2.91 1.68,6 1.7,9.12zm-25.97,0c-0.05,2.44 0.36,4.87 1.2,7.15c0.59,1.97 1.88,3.65 3.63,4.68c1.86,1.13 3.99,1.73 6.16,1.73c2.16,0 4.29,-0.6 6.16,-1.73c1.6,-1.13 2.79,-2.78 3.38,-4.68c0.82,-2.29 1.23,-4.71 1.21,-7.15c0.27,-3.45 -0.63,-6.88 -2.54,-9.74c-0.98,-1.22 -2.25,-2.17 -3.68,-2.77c-1.44,-0.61 -2.99,-0.84 -4.53,-0.68c-2.17,0 -4.3,0.6 -6.16,1.73c-1.62,1.13 -2.88,2.71 -3.63,4.56c-0.85,2.19 -1.26,4.54 -1.2,6.9z" fill="#e5d0bb" id="svg_12" stroke="#e5d0bb"/>
   <path d="m546.29,449.43c-0.01,2.17 -0.46,4.31 -1.33,6.28c-0.88,1.9 -2.37,3.42 -4.22,4.32c-2.19,1.08 -4.58,1.67 -7.01,1.72c-1.7,0.13 -3.41,-0.11 -5.01,-0.7c-1.61,-0.6 -3.07,-1.53 -4.29,-2.75c-1.11,-1.17 -1.98,-2.56 -2.57,-4.09c-0.58,-1.52 -0.86,-3.15 -0.81,-4.78l0,-21.2l4.22,0l0,21.57c-0.11,1.02 -0.03,2.05 0.25,3.04c0.27,0.99 0.74,1.91 1.37,2.72c0.63,0.8 1.41,1.46 2.29,1.96c0.89,0.49 1.86,0.8 2.86,0.91l1.93,0c1.69,0.03 3.36,-0.4 4.83,-1.24c1.25,-0.67 2.23,-1.76 2.78,-3.08c0.56,-1.36 0.85,-2.83 0.85,-4.31l0,-21.57l4.22,0l0,21.57l-0.36,-0.37z" fill="#e5d0bb" id="svg_13" stroke="#e5d0bb"/>
   <path d="m604.52,428.21c3.3,-0.27 6.59,0.64 9.3,2.59c0.96,0.9 1.71,2.01 2.19,3.25c0.48,1.24 0.68,2.57 0.59,3.9c-0.03,1.38 -0.23,2.74 -0.61,4.07c-0.5,1.28 -1.24,2.45 -2.17,3.45c-1.12,1.1 -2.49,1.9 -3.99,2.34c-2.01,0.53 -4.08,0.82 -6.16,0.86l-3.62,0l0,12.33l-4.23,0l0,-32.79l8.7,0zm0,3.45l-4.23,0l0,13.19l3.38,0c1.69,0.12 3.39,0.12 5.08,0c1.2,-0.47 2.25,-1.28 3.02,-2.34c0.79,-1.2 1.17,-2.63 1.08,-4.07c0.05,-0.89 -0.1,-1.79 -0.43,-2.62c-0.33,-0.83 -0.85,-1.58 -1.5,-2.18c-1.9,-1.51 -4.24,-2.34 -6.64,-2.35l0.24,0.37z" fill="#e5d0bb" id="svg_14" stroke="#e5d0bb"/>
   <path d="m376.62,0l0,167.52l139.64,0l0,-83.58l-56.66,-61.14l-57.49,61.14l0,57.69l61.6,0l0,-60.03l-0.12,-7.39l-8.09,7.39l0,51.65l-45.18,0l0,-45.98l49.16,-52.26l48.56,52.26l0,71.87l-123.09,0l0,-150.76l149.31,0l0,152.48l-0.13,7.15l8.34,-7.15l0,-160.86l-165.85,0z" fill="#e5d0bb" id="svg_15" stroke="#e5d0bb" stroke-width="2"/>
  </g>
 </g>
</svg>