<svg width="918" height="462" viewBox="0 0 918 462" fill="none" xmlns="http://www.w3.org/2000/svg">
<g clip-path="url(#clip0_1303_690)">
<path d="M0.5 237.527H52.2008C64.5697 237.188 76.8236 240.028 87.8357 245.786C97.9607 250.898 106.369 258.964 111.995 268.96C117.634 279.265 120.594 290.871 120.594 302.673C120.594 314.475 117.634 326.081 111.995 336.386C106.133 346.221 97.7893 354.267 87.8357 359.683C76.7927 365.354 64.5606 368.189 52.2008 367.942H0.5V237.527ZM51.3552 355.616C61.4786 355.899 71.5035 353.522 80.4671 348.713C88.6459 344.428 95.4093 337.784 99.9153 329.607C104.495 321.176 106.898 311.696 106.898 302.057C106.898 292.418 104.495 282.937 99.9153 274.507C95.3285 266.639 88.5613 260.334 80.4671 256.387C71.3662 251.841 61.367 249.48 51.2344 249.484H13.6668V355.616H51.3552Z" fill="#0D2925"/>
<path d="M240.4 355.628V367.954H150.527V237.539H237.5V249.249H163.694V295.474H229.528V307.801H163.694V355.997L240.4 355.628Z" fill="#0D2925"/>
<path d="M341.026 359.94C331.024 354.481 322.67 346.341 316.867 336.396C311.162 326.069 308.165 314.414 308.165 302.559C308.165 290.705 311.162 279.05 316.867 268.723C322.636 258.75 330.998 250.602 341.026 245.179C350.29 240.317 360.445 237.477 370.843 236.841C381.242 236.204 391.657 237.784 401.424 241.481C409.134 244.615 416.065 249.457 421.718 255.657L413.262 264.285C408.374 259.213 402.518 255.217 396.056 252.546C389.594 249.874 382.664 248.584 375.694 248.754C366.064 248.678 356.577 251.14 348.153 255.903C340.145 260.483 333.443 267.11 328.705 275.133C324.135 283.522 321.737 292.962 321.737 302.559C321.737 312.157 324.135 321.597 328.705 329.986C333.307 337.99 339.889 344.621 347.79 349.216C356.227 353.948 365.705 356.408 375.332 356.365C382.329 356.605 389.297 355.347 395.788 352.672C402.279 349.997 408.149 345.964 413.02 340.833L421.476 349.462C415.852 355.78 408.803 360.603 400.941 363.514C392.505 366.829 383.525 368.461 374.486 368.322C362.8 368.62 351.248 365.726 341.026 359.94Z" fill="#0D2925"/>
<path d="M469.189 359.957C459.146 354.556 450.779 346.402 445.03 336.413C439.391 326.108 436.431 314.502 436.431 302.7C436.431 290.898 439.391 279.292 445.03 268.987C450.817 259.06 459.177 250.955 469.189 245.566C479.734 239.919 491.465 236.969 503.374 236.969C515.283 236.969 527.015 239.919 537.56 245.566C547.554 250.981 555.908 259.079 561.719 268.987C567.423 279.337 570.419 291.011 570.419 302.885C570.419 314.759 567.423 326.433 561.719 336.783C555.977 346.747 547.606 354.863 537.56 360.204C526.996 365.79 515.272 368.707 503.374 368.707C491.476 368.707 479.752 365.79 469.189 360.204V359.957ZM530.433 349.356C538.459 344.667 545.095 337.853 549.639 329.634C554.154 321.182 556.519 311.71 556.519 302.084C556.519 292.458 554.154 282.986 549.639 274.534C545.041 266.578 538.4 260.057 530.433 255.674C522.115 251.026 512.732 248.728 503.254 249.018C493.744 248.934 484.362 251.264 475.954 255.797C467.98 260.38 461.318 267.009 456.626 275.027C452.047 283.457 449.644 292.938 449.644 302.577C449.644 312.216 452.047 321.696 456.626 330.127C461.148 338.28 467.852 344.95 475.954 349.356C484.321 354.013 493.723 356.391 503.254 356.259C512.751 356.438 522.126 354.056 530.433 349.356Z" fill="#0D2925"/>
<path d="M608.103 364.003C600.468 361.615 593.507 357.387 587.81 351.676L593.125 340.952C598.362 346.019 604.573 349.923 611.365 352.416C619.081 355.388 627.277 356.852 635.524 356.73C644.211 357.232 652.843 355.04 660.287 350.443C662.957 348.63 665.125 346.148 666.585 343.234C668.044 340.32 668.746 337.072 668.622 333.802C668.789 331.541 668.477 329.269 667.705 327.142C666.934 325.015 665.722 323.082 664.153 321.476C660.916 318.348 657.096 315.916 652.919 314.326C646.787 312.016 640.486 310.203 634.075 308.903C626.588 306.917 619.209 304.53 611.969 301.753C606.394 299.47 601.398 295.93 597.352 291.399C593.185 285.907 591.008 279.113 591.192 272.17C591.19 265.764 592.948 259.487 596.265 254.05C600.276 248.532 605.714 244.264 611.969 241.723C620.28 238.252 629.204 236.574 638.182 236.792C645.417 236.882 652.608 237.96 659.563 239.997C665.965 241.725 672.046 244.515 677.561 248.256L672.971 259.227C667.691 255.671 661.905 252.969 655.818 251.214C650.089 249.502 644.151 248.631 638.182 248.626C629.261 248.003 620.377 250.291 612.814 255.159C610.232 257.117 608.134 259.664 606.687 262.595C605.24 265.527 604.484 268.764 604.479 272.046C604.359 274.325 604.718 276.603 605.53 278.729C606.343 280.855 607.59 282.779 609.19 284.373C612.7 287.567 616.81 290 621.27 291.522C625.981 293.248 632.142 294.974 639.994 296.946C647.714 298.849 655.334 301.153 662.824 303.849C668.398 306.133 673.395 309.672 677.44 314.203C681.716 319.479 683.836 326.234 683.359 333.063C683.381 339.471 681.621 345.754 678.286 351.183C674.177 356.756 668.607 361.029 662.22 363.51C653.825 366.794 644.874 368.345 635.887 368.07C626.465 368.353 617.067 366.977 608.103 364.003Z" fill="#0D2925"/>
<path d="M734.821 249.498H690.127V237.172H793.166V249.498H748.471V367.341H734.821V249.498Z" fill="#0D2925"/>
<path d="M887.988 332.7H817.322L802.223 367.338H787.969L846.072 237.539H859.239L917.462 367.338H903.45L887.988 332.7ZM883.156 321.483L852.595 251.838L821.912 321.483H883.156Z" fill="#0D2925"/>
<path d="M315.452 443.625H326.686V460.019C324.947 460.626 323.172 461.12 321.371 461.498C319.279 461.63 317.181 461.63 315.09 461.498C312.189 461.61 309.311 460.929 306.755 459.526C304.413 458.086 302.526 455.99 301.319 453.486C300.098 450.611 299.52 447.495 299.628 444.364C299.532 441.273 300.24 438.21 301.681 435.489C303.005 432.907 305.07 430.8 307.6 429.449C310.327 427.905 313.426 427.179 316.539 427.354C318.242 427.437 319.938 427.643 321.613 427.97C323.16 428.257 324.664 428.755 326.082 429.449L324.391 433.147C323.161 432.507 321.864 432.011 320.525 431.668C318.998 431.547 317.463 431.547 315.935 431.668C313.612 431.652 311.324 432.246 309.291 433.394C307.398 434.356 305.9 435.972 305.064 437.955C303.972 440.166 303.471 442.632 303.614 445.104C303.531 447.455 303.9 449.8 304.701 452.007C305.547 453.969 306.931 455.638 308.687 456.814C310.835 458.003 313.251 458.598 315.694 458.54C316.899 458.663 318.113 458.663 319.317 458.54H322.217V447.939H315.452V443.625Z" fill="#0D2925"/>
<path d="M384.186 428.227C386.495 428.217 388.787 428.634 390.951 429.459C392.561 429.978 393.934 431.072 394.816 432.541C395.721 434.103 396.142 435.908 396.024 437.718C395.976 439.194 395.691 440.652 395.178 442.032C394.534 443.146 393.67 444.111 392.642 444.868C391.665 445.566 390.611 446.146 389.501 446.593L398.561 461.509H393.729L385.877 447.826H379.354V461.509H375.851V428.227H384.186ZM384.186 432.048H379.354V444.375H384.186C386.303 444.591 388.42 443.974 390.105 442.649C390.729 442.048 391.223 441.322 391.556 440.515C391.889 439.708 392.053 438.84 392.038 437.965C392.071 436.796 391.778 435.642 391.192 434.637C390.514 433.75 389.646 433.034 388.655 432.541C387.196 432.106 385.645 432.106 384.186 432.541V432.048Z" fill="#0D2925"/>
<path d="M473.336 444.5C473.316 446.827 473.032 449.143 472.49 451.403C471.912 453.401 470.924 455.249 469.591 456.827C468.434 458.473 466.779 459.686 464.88 460.278C462.807 461.124 460.59 461.543 458.357 461.511C456.049 461.51 453.759 461.093 451.593 460.278C449.83 459.429 448.234 458.259 446.882 456.827C445.523 455.286 444.568 453.421 444.103 451.403C443.518 449.151 443.234 446.829 443.258 444.5C443.212 441.454 443.787 438.432 444.949 435.625C445.978 433.156 447.701 431.054 449.901 429.585C452.514 428.189 455.409 427.429 458.357 427.366C461.217 427.283 464.048 427.962 466.571 429.339C468.775 430.837 470.531 432.927 471.645 435.379C472.75 438.288 473.324 441.38 473.336 444.5ZM447.365 444.5C447.322 446.94 447.732 449.365 448.573 451.65C449.156 453.623 450.451 455.297 452.197 456.334C454.061 457.463 456.189 458.059 458.357 458.059C460.525 458.059 462.653 457.463 464.518 456.334C466.122 455.198 467.312 453.55 467.9 451.65C468.719 449.36 469.129 446.938 469.108 444.5C469.375 441.054 468.48 437.618 466.571 434.762C465.586 433.542 464.321 432.589 462.888 431.987C461.455 431.385 459.899 431.152 458.357 431.311C456.189 431.311 454.061 431.907 452.197 433.036C450.583 434.168 449.324 435.752 448.573 437.597C447.721 439.792 447.31 442.14 447.365 444.5Z" fill="#0D2925"/>
<path d="M546.293 449.428C546.285 451.595 545.832 453.737 544.964 455.715C544.082 457.606 542.589 459.129 540.736 460.029C538.548 461.108 536.159 461.696 533.73 461.755C532.029 461.882 530.32 461.641 528.717 461.046C527.114 460.451 525.652 459.516 524.429 458.303C523.316 457.127 522.445 455.736 521.864 454.213C521.283 452.689 521.005 451.063 521.046 449.428V428.227H525.274V449.798C525.157 450.819 525.239 451.853 525.517 452.842C525.794 453.83 526.261 454.752 526.89 455.555C527.519 456.357 528.299 457.024 529.182 457.517C530.066 458.01 531.037 458.319 532.039 458.427H533.972C535.661 458.459 537.328 458.034 538.804 457.194C540.048 456.521 541.028 455.433 541.582 454.112C542.14 452.745 542.427 451.279 542.427 449.798V428.227H546.655V449.798L546.293 449.428Z" fill="#0D2925"/>
<path d="M604.518 428.212C607.82 427.936 611.112 428.852 613.819 430.801C614.778 431.704 615.526 432.815 616.007 434.053C616.488 435.29 616.69 436.622 616.598 437.95C616.574 439.328 616.371 440.695 615.994 442.018C615.491 443.299 614.753 444.471 613.819 445.47C612.698 446.57 611.329 447.374 609.833 447.812C607.819 448.34 605.752 448.629 603.673 448.674H600.049V461.001H595.821V428.212H604.518ZM604.518 431.664H600.29V444.853H603.673C605.362 444.974 607.057 444.974 608.746 444.853C609.951 444.382 610.999 443.57 611.766 442.511C612.559 441.315 612.941 439.885 612.853 438.443C612.902 437.546 612.754 436.648 612.419 435.817C612.085 434.985 611.573 434.24 610.92 433.636C609.021 432.126 606.684 431.302 604.277 431.294L604.518 431.664Z" fill="#0D2925"/>
<path d="M376.617 0V167.518H516.257V83.944L459.604 22.8042L402.105 83.944V141.632H463.711V81.6019L463.59 74.206L455.497 81.6019V133.25H410.319V87.2721L459.483 35.0075L508.043 87.2721V159.136H384.952V8.38207H534.256V160.862L534.135 168.011L542.47 160.862V0H376.617Z" fill="#0D2925"/>
</g>
<defs>
<clipPath id="clip0_1303_690">
<rect width="916.964" height="462" fill="white" transform="translate(0.5)"/>
</clipPath>
</defs>
</svg>
